<?xml version="1.0" standalone="no"?>
<!DOCTYPE svg PUBLIC "-//W3C//DTD SVG 20010904//EN"
 "http://www.w3.org/TR/2001/REC-SVG-20010904/DTD/svg10.dtd">
<svg version="1.0" xmlns="http://www.w3.org/2000/svg"
 width="902.000000pt" height="902.000000pt" viewBox="0 0 902.000000 902.000000"
 preserveAspectRatio="xMidYMid meet">
<metadata>
Created by potrace 1.14, written by Peter Selinger 2001-2017
</metadata>
<g transform="translate(0.000000,902.000000) scale(0.100000,-0.100000)"
fill="#000000" stroke="none">
<path d="M3123 8999 c-222 -56 -369 -257 -356 -486 15 -288 284 -494 568 -436
332 68 486 452 295 734 -111 162 -314 238 -507 188z"/>
<path d="M4672 8785 c-347 -75 -509 -495 -305 -793 236 -343 755 -262 881 138
117 371 -203 734 -576 655z"/>
<path d="M3239 7776 c-2 -2 -49 -6 -104 -9 -55 -4 -113 -9 -130 -12 -264 -47
-516 -173 -729 -365 -298 -269 -522 -608 -647 -980 -29 -88 -66 -223 -74 -275
-3 -16 -10 -52 -15 -80 -25 -137 -34 -244 -34 -445 -1 -170 7 -339 18 -400 2
-14 7 -49 10 -78 3 -28 8 -67 11 -85 3 -17 7 -48 10 -67 6 -45 38 -214 58
-305 123 -550 364 -1076 700 -1520 53 -70 182 -231 197 -245 3 -3 41 -45 85
-95 97 -110 362 -376 504 -505 57 -52 118 -108 136 -125 17 -16 79 -73 136
-125 57 -52 133 -122 169 -156 91 -84 190 -175 223 -204 16 -14 50 -45 76 -70
26 -25 113 -103 192 -175 220 -198 369 -352 370 -384 6 -193 -3 -612 -16 -692
-2 -13 -6 -49 -10 -79 -4 -30 -8 -62 -10 -70 -2 -8 -6 -32 -10 -54 -4 -21 -15
-69 -25 -107 l-18 -68 22 11 c22 12 549 330 629 380 26 17 47 35 47 42 0 10
71 64 273 206 27 20 50 38 51 42 1 8 -145 204 -242 323 l-82 100 0 892 0 891
58 38 c680 447 1166 783 1438 994 128 99 347 316 455 450 281 350 465 756 524
1160 3 19 7 44 10 55 18 86 26 437 13 560 -51 472 -344 964 -728 1220 -132 89
-269 144 -450 183 -14 3 -499 7 -1078 9 l-1053 4 24 -33 c60 -81 129 -244 151
-353 l6 -30 -18 25 c-9 14 -51 65 -92 115 -243 290 -559 454 -927 481 -49 3
-91 8 -94 10 -3 2 -8 2 -10 0z m110 -486 c167 -44 337 -162 447 -311 42 -57
108 -189 125 -249 7 -25 14 -47 16 -49 2 -4 59 37 85 61 13 13 193 167 237
203 13 11 46 39 73 63 27 23 52 42 57 42 4 0 9 -30 11 -67 1 -38 3 -1232 4
-2655 1 -2555 1 -2586 -18 -2570 -31 27 -46 41 -152 142 -113 107 -218 206
-420 395 -174 163 -172 161 -312 292 -259 241 -551 545 -689 718 -17 22 -51
65 -76 95 -223 281 -420 639 -528 965 -17 50 -33 97 -36 105 -9 23 -10 25 -48
165 -37 138 -87 385 -105 525 -6 47 -13 99 -16 115 -17 122 -22 364 -11 510 8
107 10 118 43 295 6 35 73 248 90 290 126 301 337 596 534 747 209 159 481
227 689 173z m2899 -376 c165 -33 323 -149 465 -339 104 -140 169 -297 195
-470 13 -94 4 -496 -13 -525 -1 -3 -6 -29 -9 -59 -4 -29 -8 -56 -10 -60 -2 -3
-7 -22 -10 -41 -13 -82 -86 -294 -126 -365 -9 -16 -29 -52 -44 -80 -139 -249
-434 -536 -817 -795 -44 -30 -86 -60 -92 -65 -12 -10 -740 -496 -764 -509 -10
-6 -13 329 -13 1658 l0 1666 580 0 c489 0 593 -2 658 -16z"/>
</g>
</svg>
